<svg width="144" height="142" viewBox="0 0 144 142" fill="none" xmlns="http://www.w3.org/2000/svg">
<rect x="13.379" y="48.037" width="10.9144" height="85.9595" fill="#FFB100"/>
<rect width="9.45472" height="63.6124" transform="matrix(0.816277 -0.577661 0.816277 0.577661 13.379 92.6164)" fill="#FFB100"/>
<rect width="9.45472" height="143.511" transform="matrix(0.816277 0.577661 -0.816277 0.577661 132.636 6.11835)" fill="#FFB100"/>
<rect y="95.6262" width="7.7239" height="24.2934" transform="rotate(-90 0 95.6262)" fill="#FFB100"/>
<rect x="62.6699" y="45.2962" width="10.9144" height="89.1986" fill="#8C2B2B"/>
<rect width="9.45472" height="87.4047" transform="matrix(0.816277 0.577661 -0.816277 0.577661 133.664 -5.28284)" fill="#8C2B2B"/>
<rect x="67.9511" y="94.8787" width="7.7239" height="65.4865" transform="rotate(-90 67.9511 94.8787)" fill="#8C2B2B"/>
<rect x="67.9511" y="94.8787" width="7.7239" height="65.4865" transform="rotate(-90 67.9511 94.8787)" fill="#8C2B2B"/>
<rect width="9.45472" height="38.4719" transform="matrix(0.816277 -0.577661 0.816277 0.577661 35.5599 119.276)" fill="black"/>
<rect x="132" y="-15" width="12" height="113" fill="black"/>
</svg>
